<?xml version="1.0" standalone="no"?>
<!DOCTYPE svg PUBLIC "-//W3C//DTD SVG 1.1//EN" "http://www.w3.org/Graphics/SVG/1.1/DTD/svg11.dtd" >
<svg xmlns="http://www.w3.org/2000/svg">
<metadata></metadata>
<defs>
<font id="liszt_fylight" horiz-adv-x="1153" >
<font-face units-per-em="2048" ascent="1638" descent="-410" />
<missing-glyph horiz-adv-x="542" />
<glyph unicode="&#xfb01;" horiz-adv-x="1095" d="M27 963v75h180v92q0 197 81.5 291.5t219.5 94.5q98 0 162 -43v-80q-54 43 -152 43q-223 0 -223 -306v-92h311v-75h-311v-963h-88v963h-180zM815 0v1038h88v-1038h-88zM815 1227v258h88v-258h-88z" />
<glyph unicode="&#xfb02;" horiz-adv-x="1095" d="M27 963v75h180v92q0 197 81.5 291.5t219.5 94.5q98 0 162 -43v-80q-54 43 -152 43q-223 0 -223 -306v-92h311v-75h-311v-963h-88v963h-180zM815 0v1497l88 19v-1516h-88z" />
<glyph horiz-adv-x="0" />
<glyph horiz-adv-x="0" />
<glyph horiz-adv-x="682" />
<glyph unicode="&#xd;" horiz-adv-x="0" />
<glyph unicode=" "  horiz-adv-x="542" />
<glyph unicode="&#x09;" horiz-adv-x="542" />
<glyph unicode="&#xa0;" horiz-adv-x="542" />
<glyph unicode="!" horiz-adv-x="561" d="M219 0v178h117v-178h-117zM227 733v680h101v-680l-21 -356h-59z" />
<glyph unicode="&#x22;" horiz-adv-x="522" d="M86 1413h84l-12 -328h-60zM352 1413h84l-12 -328h-59z" />
<glyph unicode="#" horiz-adv-x="1449" d="M74 436v72h297l141 383h-283v72h308l165 450h82l-166 -450h396l166 450h82l-166 -450h280v-72h-305l-141 -383h291v-72h-318l-160 -436h-81l159 436h-395l-160 -436h-82l160 436h-270zM453 508h395l141 383h-395z" />
<glyph unicode="$" horiz-adv-x="1099" d="M121 109v96q74 -60 171.5 -98t194.5 -44v656q-89 39 -146.5 72t-107.5 78.5t-73 103t-23 131.5q0 133 96.5 222t253.5 104v169h72v-165q188 -3 328 -88v-95q-155 99 -328 99v-566q224 -89 320 -186.5t96 -251.5q0 -162 -117.5 -259.5t-298.5 -106.5v-148h-72v150 q-102 5 -201 39t-165 88zM227 1108q0 -102 64 -167t196 -124v529q-113 -14 -186.5 -76.5t-73.5 -161.5zM559 63q144 8 236 82t92 197q0 51 -15.5 93.5t-41.5 75.5t-69.5 64.5t-89.5 56t-112 54.5v-623z" />
<glyph unicode="%" horiz-adv-x="1849" d="M82 1026q0 188 89 298t241 110t240.5 -110t88.5 -298q0 -189 -88 -297t-241 -108t-241.5 108.5t-88.5 296.5zM160 1026q0 -159 66 -248.5t186 -89.5q121 0 186.5 89.5t65.5 248.5t-65.5 247.5t-186.5 88.5q-120 0 -186 -88.5t-66 -247.5zM485 0l803 1413h76l-799 -1413 h-80zM1106 399q0 188 89 298t241 110t240.5 -110t88.5 -298q0 -189 -88 -297t-241 -108t-241.5 108.5t-88.5 296.5zM1184 399q0 -159 66 -248.5t186 -89.5q121 0 186.5 89.5t65.5 248.5t-65.5 247.5t-186.5 88.5q-120 0 -186 -88.5t-66 -247.5z" />
<glyph unicode="&#x26;" horiz-adv-x="1435" d="M117 360q0 140 84.5 230.5t255.5 154.5q-104 92 -155.5 168.5t-51.5 180.5q0 144 97 242t271 98q160 0 258.5 -89.5t98.5 -222.5q0 -75 -27 -135t-81 -106.5t-116.5 -81t-152.5 -70.5l481 -444q99 114 156 272l76 -25q-68 -174 -174 -301l209 -194l-62 -57l-205 190 q-203 -190 -487 -190q-126 0 -231.5 40.5t-174.5 128.5t-69 211zM207 369q0 -140 114 -225t279 -85q240 0 422 164l-514 475q-301 -100 -301 -329zM342 1096q0 -84 50 -154t159 -170q89 40 145 72t102 72.5t66.5 88.5t20.5 109q0 107 -76.5 173.5t-187.5 66.5 q-130 0 -204.5 -71t-74.5 -187z" />
<glyph unicode="'" horiz-adv-x="256" d="M86 1413h84l-12 -328h-60z" />
<glyph unicode="(" horiz-adv-x="716" d="M137 604q0 243 114 484.5t327 406.5l40 -37q-193 -180 -291 -405.5t-98 -448.5t98 -448t291 -404l-43 -37q-212 166 -325 406.5t-113 482.5z" />
<glyph unicode=")" horiz-adv-x="716" d="M96 -248q195 179 293 404t98 448q0 222 -98.5 447.5t-292.5 406.5l41 37q214 -165 328.5 -406.5t114.5 -484.5q0 -242 -114.5 -482.5t-326.5 -406.5z" />
<glyph unicode="*" horiz-adv-x="806" d="M86 1219l29 63l266 -117l-10 308h67l-10 -308l264 117l29 -63l-279 -101l205 -237l-53 -41l-188 247l-187 -243l-51 41l199 233z" />
<glyph unicode="+" d="M98 659v74h439v461h77v-461h439v-74h-439v-460h-77v460h-439z" />
<glyph unicode="," horiz-adv-x="327" d="M80 -190q76 86 76 190h-52v178h117v-147q0 -86 -34.5 -153.5t-92.5 -110.5z" />
<glyph unicode="-" horiz-adv-x="798" d="M106 537v73h586v-73h-586z" />
<glyph unicode="." horiz-adv-x="327" d="M104 0v178h117v-178h-117z" />
<glyph unicode="/" horiz-adv-x="755" d="M55 0l559 1415h86l-561 -1415h-84z" />
<glyph unicode="0" horiz-adv-x="1384" d="M115 707q0 339 154 533t423 194t423.5 -194t154.5 -533t-154.5 -533t-423.5 -194t-423 194t-154 533zM209 707q0 -302 127 -473t356 -171t356.5 171t127.5 473q0 303 -127 472t-357 169t-356.5 -169t-126.5 -472z" />
<glyph unicode="1" horiz-adv-x="684" d="M96 1143v84l303 159h82v-1386h-90v1292z" />
<glyph unicode="2" horiz-adv-x="1107" d="M78 0v33q0 231 274 452l260 211q61 49 91.5 74.5t70.5 66t58 73t31.5 77t13.5 94.5q0 113 -90 190t-250 77q-215 0 -385 -117v94q184 109 397 109q197 0 308.5 -99t111.5 -248q0 -70 -19.5 -130t-62.5 -114.5t-85 -94.5t-112 -97l-268 -219q-122 -101 -182.5 -182.5 t-63.5 -167.5h834v-82h-932z" />
<glyph unicode="3" horiz-adv-x="1118" d="M90 86v90q187 -113 399 -113q188 0 305 88.5t117 237.5q0 143 -104 224t-260 81h-207v78h209q142 0 240 81.5t98 211.5q0 128 -106.5 205.5t-272.5 77.5q-213 0 -393 -117v92q178 111 395 111q206 0 337.5 -100t131.5 -263q0 -128 -78.5 -216t-193.5 -122q56 -12 106 -37 t94 -65.5t70.5 -103.5t26.5 -140q0 -184 -143 -295.5t-361 -111.5q-236 0 -410 106z" />
<glyph unicode="4" horiz-adv-x="1175" d="M90 322v77l621 1014h96l-619 -1010h613v322l88 49v-371h192v-81h-192v-322h-88v322h-711z" />
<glyph unicode="5" horiz-adv-x="1163" d="M127 80v98q196 -115 424 -115q184 0 294.5 99.5t110.5 261.5q0 167 -113 263.5t-311 96.5q-153 0 -352 -47l27 676h711v-84h-629l-21 -500q152 33 281 33q237 0 369.5 -119.5t132.5 -318.5q0 -201 -135 -322.5t-357 -121.5q-252 0 -432 100z" />
<glyph unicode="6" horiz-adv-x="1236" d="M115 627q0 122 23 236.5t72.5 219t121.5 182t178 123.5t233 46q92 0 181 -25v-88q-89 27 -181 27q-104 0 -191 -36.5t-147.5 -99t-103.5 -147.5t-65 -179.5t-27 -197.5q172 217 457 217q106 -1 194 -35.5t147.5 -95t92.5 -144t33 -179.5q0 -208 -138 -339.5t-358 -131.5 q-127 0 -227 49.5t-164 137t-97.5 204.5t-33.5 256zM207 606q5 -250 117 -396.5t315 -146.5q180 0 289.5 107.5t109.5 280.5q0 167 -104.5 271.5t-292.5 104.5q-261 0 -434 -221z" />
<glyph unicode="7" horiz-adv-x="1054" d="M92 1329v84h895v-76l-694 -1337h-98l696 1329h-799z" />
<glyph unicode="8" horiz-adv-x="1228" d="M102 356q0 68 26.5 128.5t67.5 102.5t96 77t105.5 55.5t102.5 34.5l-29 10q-137 50 -214 125.5t-77 189.5q0 148 128 251.5t319 103.5q188 0 304 -98t116 -236q0 -66 -28 -123t-77.5 -98.5t-106 -71t-122.5 -49.5l61 -23q171 -63 261.5 -145.5t90.5 -212.5 q0 -176 -142 -286.5t-363 -110.5q-225 0 -372 106t-147 270zM197 369q0 -136 121.5 -223t299.5 -87q115 0 208.5 38.5t149.5 110.5t56 165t-69 163.5t-242 135.5l-131 49q-50 -11 -100 -29t-104 -48.5t-95 -68.5t-67.5 -92t-26.5 -114zM274 1077q0 -90 68 -148t190 -104 l99 -37q321 101 321 304q0 107 -94.5 183.5t-230.5 76.5q-146 0 -249.5 -79t-103.5 -196z" />
<glyph unicode="9" horiz-adv-x="1247" d="M104 958q0 208 140 342t360 134q169 0 290 -84.5t180 -228t59 -330.5q0 -101 -17 -198t-51 -188t-88.5 -167.5t-125 -134t-165.5 -89.5t-205 -32q-89 0 -190 24v88q95 -31 192 -31q132 0 236.5 54.5t170 147.5t102.5 206t46 242q-88 -102 -208 -155.5t-252 -53.5 q-213 0 -343.5 128.5t-130.5 325.5zM199 958q0 -165 106 -271.5t291 -106.5q267 0 444 227q-5 252 -118.5 396.5t-319.5 144.5q-181 0 -292 -108.5t-111 -281.5z" />
<glyph unicode=":" horiz-adv-x="397" d="M139 0v178h117v-178h-117zM139 858v178h117v-178h-117z" />
<glyph unicode=";" horiz-adv-x="397" d="M115 -190q75 85 75 190h-51v178h117v-147q0 -86 -34.5 -153.5t-92.5 -110.5zM139 858v178h117v-178h-117z" />
<glyph unicode="&#x3c;" d="M98 655v88l955 469v-90l-869 -422l869 -426v-90z" />
<glyph unicode="=" d="M98 510v74h955v-74h-955zM98 819v74h955v-74h-955z" />
<glyph unicode="&#x3e;" d="M98 184v90l869 426l-869 422v90l955 -469v-88z" />
<glyph unicode="?" horiz-adv-x="956" d="M76 1280q87 71 179 112.5t208 41.5q172 0 280.5 -94.5t108.5 -243.5q0 -79 -26 -143.5t-72.5 -108.5t-100 -73t-118.5 -48l-93 -27l-12 -319h-65l-13 371l111 30q67 18 118 42t94 60t66 88t23 119q0 115 -85.5 190t-217.5 75q-172 0 -344 -140zM338 0v178h117v-178h-117z " />
<glyph unicode="@" horiz-adv-x="1998" d="M106 455q0 255 109.5 456.5t313.5 316.5t470 115q255 0 459.5 -104t319 -287t114.5 -411q0 -130 -30 -238t-79.5 -177.5t-112.5 -107.5t-130 -38q-181 0 -233 186q-142 -186 -355 -186q-130 0 -227.5 65t-145 169.5t-47.5 231.5q0 201 121.5 335t309.5 134 q195 0 331 -174v164h82v-645q0 -89 45.5 -151t128.5 -62q118 0 192.5 136.5t74.5 346.5q0 162 -63.5 301.5t-172.5 236t-258.5 151.5t-318.5 55q-181 0 -334 -62t-259.5 -170.5t-166.5 -261t-60 -329.5q0 -152 44 -281.5t123 -224t187.5 -161t239 -99.5t275.5 -33 q237 0 485 96l25 -63q-92 -43 -228.5 -73t-283.5 -30q-280 0 -494 106.5t-332.5 305t-118.5 461.5zM618 449q0 -172 100 -284t249 -112q101 0 190 51.5t137 143.5v401q-51 85 -137 138t-184 53q-152 0 -253.5 -111t-101.5 -280z" />
<glyph unicode="A" horiz-adv-x="1409" d="M35 0l616 1413h101l620 -1413h-96l-162 369h-825l-160 -369h-94zM324 449h755l-379 868z" />
<glyph unicode="B" horiz-adv-x="1366" d="M203 0v1413h504q209 0 328.5 -92.5t119.5 -253.5q0 -117 -60 -199t-173 -120q140 -31 217.5 -125.5t77.5 -235.5q0 -182 -126.5 -284.5t-357.5 -102.5h-530zM293 78h430q194 0 296.5 81.5t102.5 231.5q0 143 -94.5 226t-251.5 83h-483v-622zM293 778h461q133 0 221 76.5 t88 206.5q0 128 -95.5 200t-260.5 72h-414v-555z" />
<glyph unicode="C" horiz-adv-x="1345" d="M106 711q0 157 52 291.5t144 229.5t222 148.5t281 53.5q119 0 229 -31t189 -82v-90q-192 117 -416 117q-270 0 -438 -176.5t-168 -460.5q0 -292 168 -470t446 -178q216 0 432 111v-90q-217 -104 -436 -104q-207 0 -367.5 91.5t-249 258t-88.5 381.5z" />
<glyph unicode="D" horiz-adv-x="1482" d="M203 0v1413h487q200 0 355.5 -90t240 -249.5t84.5 -360.5q0 -322 -188 -517.5t-496 -195.5h-483zM293 82h387q271 0 433.5 171.5t162.5 459.5q0 272 -164 444t-432 172h-387v-1247z" />
<glyph unicode="E" horiz-adv-x="1224" d="M203 0v1413h905v-84h-815v-557h602v-82h-602v-608h815v-82h-905z" />
<glyph unicode="F" horiz-adv-x="1193" d="M203 0v1413h905v-84h-815v-561h602v-82h-602v-686h-90z" />
<glyph unicode="G" horiz-adv-x="1486" d="M106 707q0 215 89.5 381t248.5 256t361 90q241 0 414 -105v-90q-190 109 -412 109q-271 0 -438.5 -175.5t-167.5 -465.5q0 -187 75.5 -333.5t216 -228.5t324.5 -82q283 0 447 136v395h-457v80h543v-518q-195 -176 -539 -176q-207 0 -368 93t-249 258.5t-88 375.5z" />
<glyph unicode="H" horiz-adv-x="1546" d="M203 0v1413h90v-665h960v665h90v-1413h-90v666h-960v-666h-90z" />
<glyph unicode="I" horiz-adv-x="495" d="M203 0v1413h90v-1413h-90z" />
<glyph unicode="J" horiz-adv-x="923" d="M102 16v84q82 -39 222 -39q52 0 96 10t85.5 36t70 66.5t46 105.5t17.5 149v985h92v-985q0 -96 -21.5 -172.5t-58.5 -127.5t-88.5 -84.5t-110 -48.5t-124.5 -15q-138 0 -226 36z" />
<glyph unicode="K" horiz-adv-x="1320" d="M203 0v1413h90v-876l792 876h103l-600 -659l669 -754h-114l-615 688l-235 -258v-430h-90z" />
<glyph unicode="L" horiz-adv-x="1239" d="M203 0v1413h90v-1331h817v-82h-907z" />
<glyph unicode="M" horiz-adv-x="1753" d="M203 0v1413h88l594 -913l577 913h88v-1413h-92v1255l-530 -843h-86l-549 841v-1253h-90z" />
<glyph unicode="N" horiz-adv-x="1531" d="M203 0v1413h86l950 -1266v1266h90v-1413h-86l-950 1262v-1262h-90z" />
<glyph unicode="O" horiz-adv-x="1626" d="M115 705q0 207 90.5 374t250 261t357.5 94q197 0 356.5 -93.5t250.5 -260t91 -373.5t-91 -373.5t-250.5 -260t-356.5 -93.5q-198 0 -357.5 93.5t-250 259.5t-90.5 372zM209 707q0 -280 171 -462t433 -182t433 182t171 462q0 278 -171 459.5t-433 181.5t-433 -181.5 t-171 -459.5z" />
<glyph unicode="P" horiz-adv-x="1302" d="M203 0v1413h512q202 0 333.5 -117.5t131.5 -302.5q0 -190 -131.5 -311t-333.5 -121h-422v-561h-90zM293 643h422q166 0 268 96.5t102 253.5q0 151 -102 243.5t-268 92.5h-422v-686z" />
<glyph unicode="Q" horiz-adv-x="1626" d="M115 705q0 207 90.5 374t250 261t357.5 94q197 0 356.5 -93.5t250.5 -260t91 -373.5t-91 -373.5t-250.5 -260t-356.5 -93.5q-39 0 -57 2q178 -74 362 -100q94 -13 197 -13q98 0 203 12l-21 -82q-93 -11 -185 -11q-320 0 -630 134l25 66q-172 23 -306.5 120.5t-210 253 t-75.5 343.5zM209 707q0 -280 171 -462t433 -182t433 182t171 462q0 278 -171 459.5t-433 181.5t-433 -181.5t-171 -459.5z" />
<glyph unicode="R" horiz-adv-x="1331" d="M203 0v1413h526q194 0 321.5 -105.5t127.5 -269.5q0 -151 -101 -255.5t-264 -127.5l428 -655h-111l-415 649h-422v-649h-90zM293 731h436q157 0 255.5 85.5t98.5 219.5q0 131 -97.5 212t-256.5 81h-436v-598z" />
<glyph unicode="S" horiz-adv-x="1214" d="M115 113v96q98 -66 229 -107t258 -41q184 0 301 79t117 220q0 53 -21.5 97t-56 77t-95.5 65t-121.5 55.5t-152.5 54.5q-93 31 -156.5 56.5t-123 59.5t-94.5 71t-55.5 86.5t-20.5 109.5q0 151 137.5 246.5t353.5 95.5t406 -99v-88q-183 103 -408 103q-169 0 -283 -68.5 t-114 -189.5q0 -34 11 -64t27.5 -53.5t48.5 -46.5t62 -40t80.5 -37t91 -34.5t105.5 -36.5q254 -84 362.5 -177t108.5 -241q0 -176 -145.5 -279t-366.5 -103q-133 0 -264.5 37t-220.5 96z" />
<glyph unicode="T" horiz-adv-x="1206" d="M66 1329v84h1075v-84h-494v-1329h-90v1329h-491z" />
<glyph unicode="U" horiz-adv-x="1505" d="M193 541v872h90v-872q0 -220 127 -349t342 -129q216 0 343.5 129.5t127.5 348.5v872h90v-874q0 -255 -152.5 -407t-408.5 -152q-255 0 -407 152.5t-152 408.5z" />
<glyph unicode="V" horiz-adv-x="1419" d="M27 1413h98l584 -1323l589 1323h95l-633 -1413h-105z" />
<glyph unicode="W" horiz-adv-x="2103" d="M27 1413h96l483 -1319l404 1055h96l399 -1055l477 1319h93l-516 -1413h-105l-401 1042l-400 -1042h-102z" />
<glyph unicode="X" horiz-adv-x="1290" d="M31 1413h104l512 -657l512 657h101l-564 -719l541 -694h-104l-494 633l-500 -633h-98l547 698z" />
<glyph unicode="Y" horiz-adv-x="1323" d="M35 1413h98l526 -735l527 735h100l-579 -815v-598h-91v598z" />
<glyph unicode="Z" horiz-adv-x="1234" d="M88 0v78l924 1225h-914v83h1030v-77l-927 -1227h944v-82h-1057z" />
<glyph unicode="[" horiz-adv-x="710" d="M182 -252v1768h436v-74h-352v-1620h352v-74h-436z" />
<glyph unicode="\" horiz-adv-x="755" d="M55 1415h84l561 -1415h-86z" />
<glyph unicode="]" horiz-adv-x="710" d="M90 -178h352v1620h-352v74h436v-1768h-436v74z" />
<glyph unicode="^" d="M135 512l418 901h76l420 -901h-84l-373 811l-373 -811h-84z" />
<glyph unicode="_" horiz-adv-x="1005" d="M41 -125h922v-74h-922v74z" />
<glyph unicode="`" horiz-adv-x="1024" d="M326 1477h106l221 -273h-82z" />
<glyph unicode="a" horiz-adv-x="1206" d="M111 334q0 155 106 250.5t289 95.5q231 0 422 -137v90q0 181 -90.5 265.5t-264.5 84.5q-190 0 -344 -100v82q145 94 353 94q434 0 434 -424v-635h-88v209q-70 -108 -183 -168.5t-241 -60.5q-169 0 -281 98t-112 256zM203 338q0 -131 93.5 -210t233.5 -79q120 0 223.5 63 t174.5 183v172q-191 145 -402 145q-155 0 -239 -74t-84 -200z" />
<glyph unicode="b" horiz-adv-x="1327" d="M193 0v1497l86 19v-707q160 250 438 250q142 0 257 -67t182 -191t67 -283q0 -239 -145 -388.5t-361 -149.5q-138 0 -251 63t-187 178v-221h-86zM279 322q74 -128 185.5 -196.5t240.5 -68.5q185 0 306.5 127t121.5 334t-121.5 335t-306.5 128q-129 0 -241 -70t-185 -200 v-389z" />
<glyph unicode="c" horiz-adv-x="1073" d="M104 518q0 240 150.5 390.5t386.5 150.5q208 0 324 -96v-95q-126 113 -314 113q-214 0 -335 -125.5t-121 -337.5t119.5 -336.5t330.5 -124.5q99 0 177 29t153 88v-82q-134 -112 -346 -112q-240 0 -382.5 147t-142.5 391z" />
<glyph unicode="d" horiz-adv-x="1327" d="M104 518q0 159 66.5 283t181 191t256.5 67q141 0 253 -63.5t186 -176.5v678l88 19v-1516h-88v227q-72 -116 -185.5 -181.5t-253.5 -65.5q-216 0 -360 149.5t-144 388.5zM195 518q0 -207 120.5 -334t305.5 -127q129 0 241.5 69.5t184.5 199.5v387q-73 129 -185 198.5 t-241 69.5q-184 0 -305 -127.5t-121 -335.5z" />
<glyph unicode="e" horiz-adv-x="1177" d="M104 535q0 234 145 379t367 145q205 0 334.5 -129.5t132.5 -339.5q0 -54 -4 -74h-889q7 -207 142 -334t338 -127q81 0 167.5 25t151.5 70v-80q-62 -41 -148.5 -65.5t-172.5 -24.5q-123 0 -228.5 42t-179 115.5t-115 176.5t-41.5 221zM193 586h804v6q0 93 -30 168 q-31 77 -85 125t-122.5 73t-145.5 25q-167 0 -287 -105.5t-134 -291.5z" />
<glyph unicode="f" horiz-adv-x="684" d="M27 963v75h180v92q0 197 82 291.5t223 94.5q98 0 162 -43v-80q-54 43 -154 43q-225 0 -225 -306v-92h311v-75h-311v-963h-88v963h-180z" />
<glyph unicode="g" horiz-adv-x="1327" d="M104 518q0 159 66.5 283t181 191t256.5 67q141 0 253 -63.5t186 -176.5v219h88v-983q0 -156 -67.5 -271.5t-179.5 -172.5t-253 -57q-62 0 -125.5 13t-99.5 32v79q99 -47 221 -47q182 0 299 110.5t117 307.5v174q-71 -115 -184.5 -179t-254.5 -64q-216 0 -360 149 t-144 389zM195 518q0 -207 120.5 -334t305.5 -127q128 0 238 67.5t188 194.5v400q-73 125 -185.5 193.5t-240.5 68.5q-184 0 -305 -127.5t-121 -335.5z" />
<glyph unicode="h" horiz-adv-x="1255" d="M193 0v1497l86 19v-693q28 44 65.5 83.5t89 75t120.5 56.5t146 21q373 0 373 -402v-657h-86v651q0 328 -305 328q-130 0 -235.5 -69.5t-167.5 -170.5v-739h-86z" />
<glyph unicode="i" horiz-adv-x="471" d="M193 0v1038h86v-1038h-86zM193 1227v258h86v-258h-86z" />
<glyph unicode="j" horiz-adv-x="489" d="M-63 -362q47 -7 71 -7q102 0 152.5 63t50.5 204v1140h86v-1136q0 -348 -272 -348q-49 0 -88 8v76zM211 1227v258h86v-258h-86z" />
<glyph unicode="k" horiz-adv-x="1087" d="M193 0v1497l86 19v-1055l583 577h103l-463 -456l532 -582h-106l-484 526l-165 -164v-362h-86z" />
<glyph unicode="l" horiz-adv-x="471" d="M193 0v1497l86 19v-1516h-86z" />
<glyph unicode="m" horiz-adv-x="1984" d="M193 0v1038h83v-219q64 101 168 170.5t240 69.5q143 0 233 -71t115 -177q60 103 163.5 175.5t242.5 72.5q174 0 269 -96.5t95 -257.5v-705h-86v698q0 125 -79.5 203t-215.5 78q-117 0 -217 -71t-162 -177v-731h-88v715q0 111 -78.5 187.5t-209.5 76.5q-219 0 -387 -244 v-735h-86z" />
<glyph unicode="n" horiz-adv-x="1255" d="M193 0v1038h83v-219q25 44 63 84t90.5 76.5t122.5 58t148 21.5q373 0 373 -402v-657h-86v651q0 328 -305 328q-130 0 -235 -70t-168 -174v-735h-86z" />
<glyph unicode="o" horiz-adv-x="1263" d="M104 520q0 155 70.5 279t190.5 192t266 68q147 0 267 -68t190.5 -192t70.5 -279q0 -236 -152 -388t-376 -152q-109 0 -206 40t-167.5 110t-112 171.5t-41.5 218.5zM195 520q0 -204 125 -334.5t311 -130.5q187 0 312.5 130.5t125.5 334.5q0 203 -125.5 332t-312.5 129 q-186 0 -311 -129t-125 -332z" />
<glyph unicode="p" horiz-adv-x="1327" d="M193 -410v1448h86v-223q74 115 186.5 179.5t251.5 64.5q142 0 257 -67t182 -191t67 -283q0 -239 -145 -388.5t-361 -149.5q-138 0 -251 63t-187 178v-631h-86zM279 313q75 -122 187 -189t239 -67q185 0 306.5 127t121.5 334t-121.5 335t-306.5 128q-128 0 -238 -67.5 t-188 -194.5v-406z" />
<glyph unicode="q" horiz-adv-x="1327" d="M104 518q0 159 66.5 283t181 191t256.5 67q141 0 253 -64t186 -178v221h88v-1446h-88v633q-72 -116 -185.5 -180.5t-253.5 -64.5q-216 0 -360 149.5t-144 388.5zM195 518q0 -207 120.5 -334t305.5 -127q129 0 242 68.5t184 191.5v406q-73 123 -185.5 190.5t-240.5 67.5 q-184 0 -305 -127.5t-121 -335.5z" />
<glyph unicode="r" horiz-adv-x="753" d="M193 0v1038h86v-217q41 109 118.5 173.5t180.5 64.5q58 0 116 -25v-84q-59 25 -127 25q-93 0 -168 -66.5t-120 -181.5v-727h-86z" />
<glyph unicode="s" horiz-adv-x="960" d="M102 84v88q67 -53 169 -85t214 -32q57 0 106.5 10.5t94 33.5t70.5 66t26 101q0 33 -8 59t-29.5 47.5t-44.5 37.5t-67 33.5t-81 30t-103 32.5q-71 21 -116 37t-93 39.5t-74 49t-43 62t-17 82.5q0 93 58.5 159t145 95t188.5 29q168 0 313 -80v-86q-138 90 -313 90 q-139 0 -222 -54.5t-83 -152.5q0 -27 7 -47.5t25.5 -38t39 -30.5t59.5 -28t73.5 -26t94.5 -30q3 -1 5.5 -1.5t4.5 -1.5q99 -29 158.5 -53t110.5 -59t73 -81t22 -110q0 -76 -31.5 -133t-87 -90.5t-123 -50t-145.5 -16.5q-114 0 -216 30.5t-161 73.5z" />
<glyph unicode="t" horiz-adv-x="710" d="M27 963v75h180v258l88 19v-277h311v-75h-311v-687q0 -123 49 -170t137 -47q66 0 133 25v-80q-90 -24 -143 -24q-126 0 -195 67t-69 223v693h-180z" />
<glyph unicode="u" horiz-adv-x="1218" d="M182 362v676h86v-669q0 -312 293 -312q220 0 377 248v733h88v-1038h-84v221q-28 -45 -63.5 -84.5t-85 -76.5t-114 -58.5t-136.5 -21.5q-361 0 -361 382z" />
<glyph unicode="v" horiz-adv-x="1097" d="M35 1038h94l410 -946l432 946h90l-486 -1038h-79z" />
<glyph unicode="w" horiz-adv-x="1705" d="M35 1038h94l360 -938l328 938h72l338 -938l360 938h84l-407 -1038h-80l-336 918l-326 -918h-76z" />
<glyph unicode="x" horiz-adv-x="1007" d="M35 0l422 528l-404 510h103l356 -452l356 452h95l-406 -508l418 -530h-101l-372 471l-373 -471h-94z" />
<glyph unicode="y" horiz-adv-x="1077" d="M37 1038h90l414 -942l411 942h90l-483 -1085q-30 -66 -58.5 -118.5t-68.5 -107t-82.5 -91t-98 -59.5t-116.5 -23q-49 0 -82 8v76q47 -7 74 -7q64 0 120 27.5t99.5 79t74.5 104t62 121.5l19 41z" />
<glyph unicode="z" horiz-adv-x="974" d="M72 0v63l708 898h-700v77h813v-65l-709 -897h719v-76h-831z" />
<glyph unicode="{" horiz-adv-x="745" d="M127 592v74h68q49 0 84.5 39.5t35.5 107.5q0 51 -25 110t-50 123t-25 128q0 156 109.5 249t314.5 93v-70q-80 0 -142 -17.5t-98 -44t-59 -63t-31 -70.5t-8 -71q0 -61 23.5 -123.5t47 -123.5t23.5 -118q0 -64 -32 -115t-76 -71q44 -20 76 -71.5t32 -115.5q0 -68 -47 -179 t-47 -185q0 -36 8 -69.5t31 -70t59 -63t98 -44t142 -17.5v-70q-205 0 -314.5 93t-109.5 249q0 66 25 129t50 120.5t25 108.5q0 69 -35.5 108.5t-84.5 39.5h-68z" />
<glyph unicode="|" horiz-adv-x="479" d="M201 -164v1741h78v-1741h-78z" />
<glyph unicode="}" horiz-adv-x="745" d="M106 -186q80 0 142 17.5t98 44t59 63t31 70t8 69.5q0 74 -47 185t-47 179q0 64 32 115.5t77 73.5q-44 18 -76.5 69t-32.5 115q0 57 23.5 118t47 123.5t23.5 123.5q0 37 -8 71t-31 70.5t-59 63t-98 44t-142 17.5v70q205 0 314.5 -93t109.5 -249q0 -64 -25 -128t-50 -123 t-25 -110q0 -68 36 -107.5t85 -39.5h67v-74h-67q-49 0 -85 -40t-36 -108q0 -51 25 -108.5t50 -120.5t25 -129q0 -156 -109.5 -249t-314.5 -93v70z" />
<glyph unicode="~" d="M98 676v76q2 1 14.5 6.5t16.5 7t17.5 6.5t20 7t20.5 6.5t23.5 6.5t24.5 5t28 4.5t29 2.5t32 1q82 0 246 -46t251 -46q120 0 232 65v-78q-45 -22 -70.5 -33t-71 -21.5t-92.5 -10.5q-93 0 -254 46t-241 46q-43 0 -92.5 -10.5t-67.5 -16.5t-66 -24z" />
<glyph unicode="&#xa1;" horiz-adv-x="561" d="M219 860v178h117v-178h-117zM227 303l21 359h59l21 -359v-676h-101v676z" />
<glyph unicode="&#xa2;" horiz-adv-x="1077" d="M106 518q0 221 120 365t329 170v180h70v-174h18q209 0 322 -101v-90q-122 113 -314 113h-26v-924h22q182 0 330 117v-80q-58 -48 -148 -81t-204 -33v-148h-70v152q-209 23 -329 167t-120 367zM195 518q0 -187 94.5 -307t265.5 -148v910q-171 -28 -265.5 -148.5 t-94.5 -306.5z" />
<glyph unicode="&#xa3;" horiz-adv-x="1114" d="M113 0v82h37q81 0 143 25t97.5 68t53 95.5t17.5 112.5q0 125 -80 260h-248v68h207q-32 54 -45.5 77.5t-35.5 71t-31 91.5t-9 93q0 175 123.5 282.5t312.5 107.5q156 0 254 -60v-92q-95 66 -245 66q-164 0 -258.5 -85.5t-94.5 -222.5q0 -19 2.5 -39t4.5 -35.5t9 -36 t10.5 -32t14.5 -33.5l15 -30t18 -32t17 -29.5t19.5 -32t18.5 -29.5h377v-68h-336q72 -130 72 -252q0 -108 -54 -189t-147 -120h666v-82h-905z" />
<glyph unicode="&#xa4;" horiz-adv-x="1228" d="M133 1171l47 48l170 -168q112 94 268 94q153 0 263 -92l166 166l45 -45l-164 -166q90 -107 90 -263q0 -154 -94 -266l170 -168l-45 -47l-172 170q-109 -86 -263 -86q-151 0 -258 90l-172 -174l-45 45l172 174q-92 110 -92 262q0 150 86 256zM291 745q0 -144 90.5 -233.5 t232.5 -89.5q148 0 240 89t92 234q0 146 -91.5 236t-236.5 92q-145 0 -236 -91t-91 -237z" />
<glyph unicode="&#xa5;" horiz-adv-x="1347" d="M47 1413h103l522 -739l526 739h100l-526 -739h358v-66h-403l-8 -10v-166h411v-67h-411v-365h-92v365h-416v67h416v166l-9 10h-407v66h362z" />
<glyph unicode="&#xa6;" horiz-adv-x="479" d="M201 -164v770h78v-770h-78zM201 807v770h78v-770h-78z" />
<glyph unicode="&#xa7;" horiz-adv-x="997" d="M106 760q0 76 44 135t114 96q-66 34 -99.5 79.5t-33.5 111.5q0 93 58.5 159t144.5 94.5t188 28.5q172 0 314 -82v-84q-135 88 -316 88q-138 0 -220.5 -53t-82.5 -151q0 -75 62.5 -111.5t246.5 -93.5q80 -24 130 -41.5t99.5 -43t76 -53.5t43 -67.5t16.5 -89.5 q0 -140 -158 -231q131 -67 131 -191q0 -70 -33 -125.5t-89 -88t-124.5 -49.5t-144.5 -17q-176 0 -313 79v84q138 -88 315 -88q138 0 221.5 53.5t83.5 151.5q0 32 -12.5 56.5t-34 43t-62 36t-84 32t-112.5 36.5q-3 1 -4 1q-80 24 -130 41.5t-99.5 43t-76 53.5t-43 67.5 t-16.5 89.5zM184 772q0 -33 8.5 -59.5t30 -49t45 -38.5t67.5 -34t82.5 -30.5t104.5 -32.5q67 -20 148 -49q60 29 100.5 79t40.5 112q0 29 -7.5 52.5t-19 42.5t-35.5 36t-47 30t-63.5 28t-75 26t-90.5 28t-145 50q-60 -29 -102 -79.5t-42 -111.5z" />
<glyph unicode="&#xa8;" horiz-adv-x="1024" d="M303 1227v258h80v-258h-80zM639 1227v258h80v-258h-80z" />
<glyph unicode="&#xa9;" horiz-adv-x="1634" d="M90 707q0 197 97 364.5t264.5 265t365.5 97.5q197 0 364.5 -97.5t265 -265t97.5 -364.5q0 -198 -97.5 -365.5t-265 -264.5t-364.5 -97q-148 0 -283 57.5t-232 154.5t-154.5 232t-57.5 283zM162 707q0 -184 86 -335t236 -237t333 -86q136 0 257 50.5t208 138t137.5 209.5 t50.5 260q0 136 -50.5 257.5t-137 208.5t-208 138t-257.5 51q-137 0 -258.5 -51t-208.5 -138t-137.5 -208.5t-50.5 -257.5zM475 711q0 159 107.5 265.5t267.5 106.5q105 0 182 -47v-67q-80 45 -180 45q-130 0 -215.5 -85t-85.5 -218q0 -139 86.5 -222t228.5 -83q99 0 166 34 v-65q-76 -37 -170 -37q-178 0 -282.5 103.5t-104.5 269.5z" />
<glyph unicode="&#xaa;" horiz-adv-x="811" d="M86 580v61h637v-61h-637zM119 1006q0 90 67 148t176 58q126 0 240 -71v39q0 102 -52.5 147t-152.5 45q-115 0 -209 -65v65q97 62 215 62q267 0 267 -252v-381h-68v119q-43 -60 -107.5 -93.5t-140.5 -33.5q-99 0 -167 59t-68 154zM190 1008q0 -72 52 -114t131 -42 q144 0 229 129v104q-96 74 -227 74q-85 0 -135 -40.5t-50 -110.5z" />
<glyph unicode="&#xab;" horiz-adv-x="1169" d="M109 487v50l434 395l39 -39l-385 -381l385 -381l-39 -39zM557 487v50l434 395l39 -39l-385 -381l385 -381l-39 -39z" />
<glyph unicode="&#xac;" d="M98 659v74h955v-540h-78v466h-877z" />
<glyph unicode="&#xad;" horiz-adv-x="798" />
<glyph unicode="&#xae;" horiz-adv-x="1064" d="M82 985q0 122 59 225.5t162.5 163.5t228.5 60q187 0 319 -131.5t132 -317.5q0 -188 -130.5 -319t-320.5 -131q-192 0 -321 130.5t-129 319.5zM145 985q0 -168 110 -279.5t277 -111.5q164 0 275 112t111 279q0 164 -111 275.5t-275 111.5q-167 0 -277 -111t-110 -276z M379 772v436h174q71 0 112.5 -35t41.5 -94q0 -48 -29.5 -79t-79.5 -44l119 -184h-68l-110 176h-105v-176h-55zM434 995h119q44 0 70 21.5t26 60.5q0 36 -26.5 58t-69.5 22h-119v-162z" />
<glyph unicode="&#xaf;" horiz-adv-x="1024" d="M213 1305v75h596v-75h-596z" />
<glyph unicode="&#xb0;" horiz-adv-x="712" d="M68 1145q0 123 82 206t204 83t205.5 -83t83.5 -206q0 -122 -83.5 -202.5t-205.5 -80.5q-123 0 -204.5 79.5t-81.5 203.5zM135 1145q0 -91 62.5 -156t156.5 -65q95 0 158 65t63 156q0 94 -63 159.5t-158 65.5q-94 0 -156.5 -65.5t-62.5 -159.5z" />
<glyph unicode="&#xb1;" d="M98 0v72h955v-72h-955zM98 688v74h432v448h78v-448h445v-74h-445v-459h-78v459h-432z" />
<glyph unicode="&#xb2;" horiz-adv-x="825" d="M137 631v24q0 131 148 256l141 113q41 33 60.5 50.5t41 43.5t29.5 51t8 56q0 59 -46.5 98t-131.5 39q-111 0 -211 -66v78q110 60 223 60q112 0 177 -57t65 -142q0 -52 -22.5 -97.5t-50.5 -75t-81 -73.5l-143 -115q-120 -97 -123 -176h441v-67h-525z" />
<glyph unicode="&#xb3;" horiz-adv-x="825" d="M145 674v76q106 -62 220 -62q99 0 160 45t61 121q0 72 -54 113t-137 41h-116v59h116q77 0 127.5 41t50.5 109q0 65 -54.5 105t-141.5 40q-115 0 -221 -66v74q103 64 223 64q117 0 192.5 -57.5t75.5 -151.5q0 -71 -42 -120t-105 -65q66 -15 112.5 -63.5t46.5 -128.5 q0 -103 -80.5 -165t-203.5 -62q-138 0 -230 53z" />
<glyph unicode="&#xb4;" horiz-adv-x="1024" d="M330 1204l223 273h111l-254 -273h-80z" />
<glyph unicode="&#xb5;" horiz-adv-x="1353" d="M193 -410v1448h88v-680q0 -154 69.5 -226.5t218.5 -72.5q127 0 229.5 72.5t166.5 173.5v733h88v-802q0 -181 125 -181q63 0 112 43l39 -57q-70 -61 -166 -61q-90 0 -142.5 62.5t-55.5 176.5q-41 -59 -96 -109t-142.5 -90t-179.5 -40q-179 0 -268 98v-488h-86z" />
<glyph unicode="&#xb6;" horiz-adv-x="966" d="M117 1055q0 156 98 257t258 101h307v-1413h-63v1348h-144v-1348h-63v692h-37q-161 0 -258.5 101.5t-97.5 261.5z" />
<glyph unicode="&#xb7;" horiz-adv-x="1024" d="M373 483v179h116v-179h-116z" />
<glyph unicode="&#xb8;" horiz-adv-x="1024" d="M301 -301q47 -27 85.5 -39t92.5 -12t89.5 23.5t35.5 68.5q0 84 -121 84h-94l43 196l49 -12l-30 -133h49q83 0 128.5 -35t45.5 -100t-55 -106.5t-136 -41.5q-105 0 -182 46v61z" />
<glyph unicode="&#xb9;" horiz-adv-x="825" d="M256 1262v73l164 86h67v-794h-73v714z" />
<glyph unicode="&#xba;" horiz-adv-x="811" d="M86 580v61h637v-61h-637zM94 1112q0 144 86.5 233t225.5 89q137 0 223 -89t86 -233q0 -142 -86 -230.5t-223 -88.5q-138 0 -225 88.5t-87 230.5zM166 1112q0 -117 65 -185.5t175 -68.5t174.5 68.5t64.5 185.5q0 118 -64.5 187t-174.5 69t-175 -69t-65 -187z" />
<glyph unicode="&#xbb;" horiz-adv-x="1169" d="M137 131l385 381l-385 381l39 39l434 -395v-50l-434 -395zM586 131l385 381l-385 381l39 39l434 -395v-50l-434 -395z" />
<glyph unicode="&#xbc;" horiz-adv-x="1849" d="M256 1262v73l164 86h67v-794h-73v714zM487 0l803 1413h76l-799 -1413h-80zM1126 170v66l336 557h78l-338 -555h322v157l69 41v-198h121v-68h-121v-168h-69v168h-398z" />
<glyph unicode="&#xbd;" horiz-adv-x="1849" d="M256 1262v73l164 86h67v-794h-73v714zM455 0l802 1413h76l-798 -1413h-80zM1161 4v25q0 131 148 256l141 112q41 33 60.5 50.5t41 43.5t29.5 51t8 56q0 59 -46.5 98t-131.5 39q-113 0 -211 -65v78q108 59 223 59q112 0 177 -57t65 -142q0 -52 -22.5 -97.5t-50.5 -75 t-81 -73.5l-143 -114q-120 -97 -123 -176h441v-68h-525z" />
<glyph unicode="&#xbe;" horiz-adv-x="1849" d="M145 674v76q106 -62 220 -62q99 0 160 45t61 121q0 72 -54 113t-137 41h-116v59h116q77 0 127.5 41t50.5 109q0 65 -54.5 105t-141.5 40q-115 0 -221 -66v74q103 64 223 64q117 0 192.5 -57.5t75.5 -151.5q0 -71 -42 -120t-105 -65q66 -15 112.5 -63.5t46.5 -128.5 q0 -103 -80.5 -165t-203.5 -62q-138 0 -230 53zM512 0l803 1413h76l-799 -1413h-80zM1126 170v66l336 557h78l-338 -555h322v157l69 41v-198h121v-68h-121v-168h-69v168h-398z" />
<glyph unicode="&#xbf;" horiz-adv-x="958" d="M104 -55q0 78 26 141.5t73 107t100.5 72.5t118.5 49l92 27l12 317h64l14 -368l-112 -33q-66 -17 -116.5 -41t-93.5 -60t-66 -88t-23 -118q0 -115 85.5 -188.5t217.5 -73.5q175 0 344 137l41 -68q-185 -151 -389 -151q-171 0 -279.5 94t-108.5 244zM502 860v178h116v-178 h-116z" />
<glyph unicode="&#xc0;" horiz-adv-x="1409" d="M35 0l616 1413h101l620 -1413h-96l-162 369h-825l-160 -369h-94zM324 449h755l-379 868zM449 1849h106l221 -272h-82z" />
<glyph unicode="&#xc1;" horiz-adv-x="1409" d="M35 0l616 1413h101l620 -1413h-96l-162 369h-825l-160 -369h-94zM324 449h755l-379 868zM592 1577l223 272h111l-254 -272h-80z" />
<glyph unicode="&#xc2;" horiz-adv-x="1409" d="M35 0l616 1413h101l620 -1413h-96l-162 369h-825l-160 -369h-94zM324 449h755l-379 868zM420 1577l231 272h105l231 -272h-78l-207 221l-208 -221h-74z" />
<glyph unicode="&#xc3;" horiz-adv-x="1409" d="M35 0l616 1413h101l620 -1413h-96l-162 369h-825l-160 -369h-94zM324 449h755l-379 868zM352 1602q8 97 60.5 161t138.5 64q48 0 95 -25.5t78.5 -55.5t71 -55.5t74.5 -25.5q50 0 83.5 41t37.5 113h70q-5 -94 -58 -157t-131 -63q-47 0 -93 25.5t-77 55.5t-70.5 55.5 t-74.5 25.5q-118 0 -135 -159h-70z" />
<glyph unicode="&#xc4;" horiz-adv-x="1409" d="M35 0l616 1413h101l620 -1413h-96l-162 369h-825l-160 -369h-94zM324 449h755l-379 868zM496 1599v259h79v-259h-79zM831 1599v259h80v-259h-80z" />
<glyph unicode="&#xc5;" horiz-adv-x="1409" d="M35 0l616 1413h101l620 -1413h-96l-162 369h-825l-160 -369h-94zM324 449h755l-379 868zM518 1729q0 78 54 131t133 53q78 0 131 -53.5t53 -130.5q0 -79 -53 -132t-131 -53q-79 0 -133 54t-54 131zM582 1729q0 -56 34 -91.5t89 -35.5q54 0 88 36t34 91t-34 89.5t-88 34.5 q-55 0 -89 -35t-34 -89z" />
<glyph unicode="&#xc6;" horiz-adv-x="1949" d="M27 0l858 1413h948v-84h-813v-557h602v-82h-602v-608h813v-82h-905v369h-580l-225 -369h-96zM393 449h535v876z" />
<glyph unicode="&#xc7;" horiz-adv-x="1345" d="M106 711q0 157 52 291.5t144 229.5t222 148.5t281 53.5q119 0 229 -31t189 -82v-90q-192 117 -416 117q-270 0 -438 -176.5t-168 -460.5q0 -292 168 -470t446 -178q216 0 432 111v-94q-209 -100 -436 -100q-33 0 -49 2l-25 -107h49q83 0 129 -35t46 -100t-54 -106.5 t-137 -41.5q-59 0 -98.5 10.5t-83.5 35.5v61q90 -51 178 -51q55 0 90 23.5t35 68.5q0 84 -119 84h-96l37 162q-275 32 -441 229t-166 496z" />
<glyph unicode="&#xc8;" horiz-adv-x="1224" d="M203 0v1413h905v-84h-815v-557h602v-82h-602v-608h815v-82h-905zM455 1849h106l221 -272h-82z" />
<glyph unicode="&#xc9;" horiz-adv-x="1224" d="M203 0v1413h905v-84h-815v-557h602v-82h-602v-608h815v-82h-905zM545 1577l223 272h111l-254 -272h-80z" />
<glyph unicode="&#xca;" horiz-adv-x="1224" d="M203 0v1413h905v-84h-815v-557h602v-82h-602v-608h815v-82h-905zM371 1577l231 272h105l231 -272h-78l-207 221l-209 -221h-73z" />
<glyph unicode="&#xcb;" horiz-adv-x="1224" d="M203 0v1413h905v-84h-815v-557h602v-82h-602v-608h815v-82h-905zM455 1599v259h80v-259h-80zM791 1599v259h79v-259h-79z" />
<glyph unicode="&#xcc;" horiz-adv-x="495" d="M29 1849h106l221 -272h-82zM203 0v1413h90v-1413h-90z" />
<glyph unicode="&#xcd;" horiz-adv-x="495" d="M160 1577l223 272h111l-254 -272h-80zM203 0v1413h90v-1413h-90z" />
<glyph unicode="&#xce;" horiz-adv-x="495" d="M-35 1577l232 272h104l231 -272h-77l-207 221l-209 -221h-74zM203 0v1413h90v-1413h-90z" />
<glyph unicode="&#xcf;" horiz-adv-x="495" d="M41 1599v259h80v-259h-80zM203 0v1413h90v-1413h-90zM377 1599v259h80v-259h-80z" />
<glyph unicode="&#xd0;" horiz-adv-x="1484" d="M45 674v74h158v665h489q200 0 355.5 -90t240 -249.5t84.5 -360.5q0 -322 -188 -517.5t-496 -195.5h-485v674h-158zM293 82h387q272 0 435 171.5t163 459.5q0 272 -164.5 444t-433.5 172h-387v-581h332v-74h-332v-592z" />
<glyph unicode="&#xd1;" horiz-adv-x="1531" d="M203 0v1413h86l950 -1266v1266h90v-1413h-86l-950 1262v-1262h-90zM414 1602q8 97 60 161t138 64q48 0 95.5 -25.5t78.5 -55.5t71 -55.5t75 -25.5q50 0 83.5 41t37.5 113h69q-5 -94 -58 -157t-130 -63q-47 0 -93 25.5t-77.5 55.5t-71 55.5t-74.5 25.5q-118 0 -135 -159 h-69z" />
<glyph unicode="&#xd2;" horiz-adv-x="1626" d="M115 705q0 207 90.5 374t250 261t357.5 94q197 0 356.5 -93.5t250.5 -260t91 -373.5t-91 -373.5t-250.5 -260t-356.5 -93.5q-198 0 -357.5 93.5t-250 259.5t-90.5 372zM209 707q0 -280 171 -462t433 -182t433 182t171 462q0 278 -171 459.5t-433 181.5t-433 -181.5 t-171 -459.5zM557 1849h107l221 -272h-82z" />
<glyph unicode="&#xd3;" horiz-adv-x="1626" d="M115 705q0 207 90.5 374t250 261t357.5 94q197 0 356.5 -93.5t250.5 -260t91 -373.5t-91 -373.5t-250.5 -260t-356.5 -93.5q-198 0 -357.5 93.5t-250 259.5t-90.5 372zM209 707q0 -280 171 -462t433 -182t433 182t171 462q0 278 -171 459.5t-433 181.5t-433 -181.5 t-171 -459.5zM700 1577l224 272h110l-254 -272h-80z" />
<glyph unicode="&#xd4;" horiz-adv-x="1626" d="M115 705q0 207 90.5 374t250 261t357.5 94q197 0 356.5 -93.5t250.5 -260t91 -373.5t-91 -373.5t-250.5 -260t-356.5 -93.5q-198 0 -357.5 93.5t-250 259.5t-90.5 372zM209 707q0 -280 171 -462t433 -182t433 182t171 462q0 278 -171 459.5t-433 181.5t-433 -181.5 t-171 -459.5zM528 1577l232 272h104l232 -272h-78l-207 221l-209 -221h-74z" />
<glyph unicode="&#xd5;" horiz-adv-x="1626" d="M115 705q0 207 90.5 374t250 261t357.5 94q197 0 356.5 -93.5t250.5 -260t91 -373.5t-91 -373.5t-250.5 -260t-356.5 -93.5q-198 0 -357.5 93.5t-250 259.5t-90.5 372zM209 707q0 -280 171 -462t433 -182t433 182t171 462q0 278 -171 459.5t-433 181.5t-433 -181.5 t-171 -459.5zM461 1602q8 97 60 161t138 64q48 0 95.5 -25.5t78.5 -55.5t71 -55.5t75 -25.5q50 0 83.5 41t37.5 113h69q-5 -94 -58 -157t-130 -63q-47 0 -93 25.5t-77 55.5t-70.5 55.5t-74.5 25.5q-55 0 -91 -39t-45 -120h-69z" />
<glyph unicode="&#xd6;" horiz-adv-x="1626" d="M115 705q0 207 90.5 374t250 261t357.5 94q197 0 356.5 -93.5t250.5 -260t91 -373.5t-91 -373.5t-250.5 -260t-356.5 -93.5q-198 0 -357.5 93.5t-250 259.5t-90.5 372zM209 707q0 -280 171 -462t433 -182t433 182t171 462q0 278 -171 459.5t-433 181.5t-433 -181.5 t-171 -459.5zM604 1599v259h80v-259h-80zM940 1599v259h80v-259h-80z" />
<glyph unicode="&#xd7;" d="M190 1018l56 53l323 -323l326 325l51 -51l-325 -328l327 -327l-53 -54l-328 328l-319 -322l-53 54l321 319z" />
<glyph unicode="&#xd8;" horiz-adv-x="1626" d="M115 705q0 207 90.5 374t250 261t357.5 94q273 0 469 -177l162 175l49 -50l-164 -174q87 -96 134.5 -224.5t47.5 -276.5q0 -207 -91 -373.5t-250.5 -260t-356.5 -93.5q-274 0 -469 176l-162 -174l-49 47l164 174q-182 204 -182 502zM209 707q0 -261 149 -437l863 922 q-166 156 -408 156q-262 0 -433 -181.5t-171 -459.5zM406 219q166 -156 407 -156q262 0 433 182t171 462q0 257 -149 436z" />
<glyph unicode="&#xd9;" horiz-adv-x="1505" d="M193 541v872h90v-872q0 -220 127 -349t342 -129q216 0 343.5 129.5t127.5 348.5v872h90v-874q0 -255 -152.5 -407t-408.5 -152q-255 0 -407 152.5t-152 408.5zM537 1849h106l221 -272h-82z" />
<glyph unicode="&#xda;" horiz-adv-x="1505" d="M193 541v872h90v-872q0 -220 127 -349t342 -129q216 0 343.5 129.5t127.5 348.5v872h90v-874q0 -255 -152.5 -407t-408.5 -152q-255 0 -407 152.5t-152 408.5zM643 1577l223 272h111l-254 -272h-80z" />
<glyph unicode="&#xdb;" horiz-adv-x="1505" d="M193 541v872h90v-872q0 -220 127 -349t342 -129q216 0 343.5 129.5t127.5 348.5v872h90v-874q0 -255 -152.5 -407t-408.5 -152q-255 0 -407 152.5t-152 408.5zM467 1577l231 272h105l231 -272h-78l-206 221l-209 -221h-74z" />
<glyph unicode="&#xdc;" horiz-adv-x="1505" d="M193 541v872h90v-872q0 -220 127 -349t342 -129q216 0 343.5 129.5t127.5 348.5v872h90v-874q0 -255 -152.5 -407t-408.5 -152q-255 0 -407 152.5t-152 408.5zM543 1599v259h80v-259h-80zM879 1599v259h79v-259h-79z" />
<glyph unicode="&#xdd;" horiz-adv-x="1323" d="M35 1413h98l526 -735l527 735h100l-579 -815v-598h-91v598zM565 1577l223 272h111l-254 -272h-80z" />
<glyph unicode="&#xde;" horiz-adv-x="1304" d="M203 0v1413h90v-276h422q203 0 334 -117t131 -303q0 -190 -131.5 -311t-333.5 -121h-422v-285h-90zM293 369h422q166 0 268 95.5t102 252.5q0 151 -102 244.5t-268 93.5h-422v-686z" />
<glyph unicode="&#xdf;" horiz-adv-x="1206" d="M193 0v1067q0 207 110.5 328t304.5 121q185 0 290.5 -100t105.5 -255q0 -69 -22 -127.5t-59 -99t-77 -67.5t-84 -44q157 -30 248.5 -135t91.5 -272q0 -128 -60 -229t-156.5 -154t-207.5 -53q-190 0 -293 67v84q133 -78 281 -78q145 0 244.5 102t99.5 265q0 90 -32 160.5 t-86.5 114t-123 65.5t-145.5 22v74q112 0 200 82.5t88 212.5q0 129 -81.5 207t-221.5 78q-153 0 -241 -97.5t-88 -267.5v-1071h-86z" />
<glyph unicode="&#xe0;" horiz-adv-x="1206" d="M111 334q0 155 106 250.5t289 95.5q231 0 422 -137v90q0 181 -90.5 265.5t-264.5 84.5q-190 0 -344 -100v82q145 94 353 94q434 0 434 -424v-635h-88v209q-70 -108 -183 -168.5t-241 -60.5q-169 0 -281 98t-112 256zM203 338q0 -131 93.5 -210t233.5 -79q120 0 223.5 63 t174.5 183v172q-191 145 -402 145q-155 0 -239 -74t-84 -200zM365 1477h106l221 -273h-82z" />
<glyph unicode="&#xe1;" horiz-adv-x="1206" d="M111 334q0 155 106 250.5t289 95.5q231 0 422 -137v90q0 181 -90.5 265.5t-264.5 84.5q-190 0 -344 -100v82q145 94 353 94q434 0 434 -424v-635h-88v209q-70 -108 -183 -168.5t-241 -60.5q-169 0 -281 98t-112 256zM203 338q0 -131 93.5 -210t233.5 -79q120 0 223.5 63 t174.5 183v172q-191 145 -402 145q-155 0 -239 -74t-84 -200zM473 1204l223 273h111l-254 -273h-80z" />
<glyph unicode="&#xe2;" horiz-adv-x="1206" d="M111 334q0 155 106 250.5t289 95.5q231 0 422 -137v90q0 181 -90.5 265.5t-264.5 84.5q-190 0 -344 -100v82q145 94 353 94q434 0 434 -424v-635h-88v209q-70 -108 -183 -168.5t-241 -60.5q-169 0 -281 98t-112 256zM203 338q0 -131 93.5 -210t233.5 -79q120 0 223.5 63 t174.5 183v172q-191 145 -402 145q-155 0 -239 -74t-84 -200zM317 1204l232 273h104l232 -273h-78l-207 221l-209 -221h-74z" />
<glyph unicode="&#xe3;" horiz-adv-x="1206" d="M111 334q0 155 106 250.5t289 95.5q231 0 422 -137v90q0 181 -90.5 265.5t-264.5 84.5q-190 0 -344 -100v82q145 94 353 94q434 0 434 -424v-635h-88v209q-70 -108 -183 -168.5t-241 -60.5q-169 0 -281 98t-112 256zM203 338q0 -131 93.5 -210t233.5 -79q120 0 223.5 63 t174.5 183v172q-191 145 -402 145q-155 0 -239 -74t-84 -200zM250 1229q8 97 60.5 161t138.5 64q48 0 95 -25.5t78.5 -55.5t71 -55.5t74.5 -25.5q50 0 83.5 41t37.5 113h69q-5 -94 -57.5 -156.5t-130.5 -62.5q-47 0 -93 25.5t-77 55.5t-70.5 55.5t-74.5 25.5 q-55 0 -91 -39.5t-45 -120.5h-69z" />
<glyph unicode="&#xe4;" horiz-adv-x="1206" d="M111 334q0 155 106 250.5t289 95.5q231 0 422 -137v90q0 181 -90.5 265.5t-264.5 84.5q-190 0 -344 -100v82q145 94 353 94q434 0 434 -424v-635h-88v209q-70 -108 -183 -168.5t-241 -60.5q-169 0 -281 98t-112 256zM203 338q0 -131 93.5 -210t233.5 -79q120 0 223.5 63 t174.5 183v172q-191 145 -402 145q-155 0 -239 -74t-84 -200zM393 1227v258h80v-258h-80zM729 1227v258h80v-258h-80z" />
<glyph unicode="&#xe5;" horiz-adv-x="1206" d="M111 334q0 155 106 250.5t289 95.5q231 0 422 -137v90q0 181 -90.5 265.5t-264.5 84.5q-190 0 -344 -100v82q145 94 353 94q434 0 434 -424v-635h-88v209q-70 -108 -183 -168.5t-241 -60.5q-169 0 -281 98t-112 256zM203 338q0 -131 93.5 -210t233.5 -79q120 0 223.5 63 t174.5 183v172q-191 145 -402 145q-155 0 -239 -74t-84 -200zM416 1356q0 78 53.5 131t132.5 53q78 0 131 -53.5t53 -130.5q0 -79 -53 -132t-131 -53q-79 0 -132.5 54t-53.5 131zM479 1356q0 -56 34 -91.5t89 -35.5q54 0 88.5 36.5t34.5 90.5q0 55 -34.5 90t-88.5 35 q-55 0 -89 -35t-34 -90z" />
<glyph unicode="&#xe6;" horiz-adv-x="2000" d="M111 334q0 155 106 250.5t289 95.5q226 0 424 -141q0 11 1 41t1 53q0 350 -361 350q-188 0 -342 -100v82q145 94 353 94q170 0 270 -72t135 -221q61 137 178 215t273 78q206 0 335 -129.5t132 -339.5q0 -54 -4 -74h-887q3 -141 68 -247t171.5 -160t237.5 -54 q81 0 167.5 25t151.5 70v-80q-62 -41 -148.5 -65.5t-172.5 -24.5q-176 0 -306 80t-194 221q-63 -134 -196.5 -217.5t-282.5 -83.5q-173 0 -286 97.5t-113 256.5zM203 338q0 -131 93.5 -210t233.5 -79q145 0 260.5 90t163.5 215q-15 44 -22 111q-87 67 -193 107t-213 40 q-155 0 -239 -74t-84 -200zM1016 586h803q1 190 -109 293.5t-274 103.5q-108 0 -198.5 -45t-151 -136.5t-70.5 -215.5z" />
<glyph unicode="&#xe7;" horiz-adv-x="1073" d="M104 518q0 240 150.5 390.5t386.5 150.5q208 0 324 -96v-95q-126 113 -314 113q-214 0 -335 -125.5t-121 -337.5t119.5 -336.5t330.5 -124.5q99 0 177 29t153 88v-82q-134 -112 -346 -112h-25l-24 -105h49q83 0 128.5 -35t45.5 -100t-54 -106.5t-137 -41.5 q-59 0 -98.5 10.5t-83.5 35.5v61q90 -51 178 -51q55 0 90 23.5t35 68.5q0 84 -119 84h-96l37 160q-209 23 -330 166.5t-121 367.5z" />
<glyph unicode="&#xe8;" horiz-adv-x="1177" d="M104 535q0 234 145 379t367 145q205 0 334.5 -129.5t132.5 -339.5q0 -54 -4 -74h-889q7 -207 142 -334t338 -127q81 0 167.5 25t151.5 70v-80q-62 -41 -148.5 -65.5t-172.5 -24.5q-123 0 -228.5 42t-179 115.5t-115 176.5t-41.5 221zM193 586h804q1 97 -30 174t-85 125 t-122.5 73t-145.5 25q-167 0 -287 -105.5t-134 -291.5zM375 1477h106l221 -273h-81z" />
<glyph unicode="&#xe9;" horiz-adv-x="1177" d="M104 535q0 234 145 379t367 145q205 0 334.5 -129.5t132.5 -339.5q0 -54 -4 -74h-889q7 -207 142 -334t338 -127q81 0 167.5 25t151.5 70v-80q-62 -41 -148.5 -65.5t-172.5 -24.5q-123 0 -228.5 42t-179 115.5t-115 176.5t-41.5 221zM193 586h804q1 97 -30 174t-85 125 t-122.5 73t-145.5 25q-167 0 -287 -105.5t-134 -291.5zM508 1204l223 273h111l-254 -273h-80z" />
<glyph unicode="&#xea;" horiz-adv-x="1177" d="M104 535q0 234 145 379t367 145q205 0 334.5 -129.5t132.5 -339.5q0 -54 -4 -74h-889q7 -207 142 -334t338 -127q81 0 167.5 25t151.5 70v-80q-62 -41 -148.5 -65.5t-172.5 -24.5q-123 0 -228.5 42t-179 115.5t-115 176.5t-41.5 221zM193 586h804q1 97 -30 174t-85 125 t-122.5 73t-145.5 25q-167 0 -287 -105.5t-134 -291.5zM303 1204l232 273h104l231 -273h-77l-207 221l-209 -221h-74z" />
<glyph unicode="&#xeb;" horiz-adv-x="1177" d="M104 535q0 234 145 379t367 145q205 0 334.5 -129.5t132.5 -339.5q0 -54 -4 -74h-889q7 -207 142 -334t338 -127q81 0 167.5 25t151.5 70v-80q-62 -41 -148.5 -65.5t-172.5 -24.5q-123 0 -228.5 42t-179 115.5t-115 176.5t-41.5 221zM193 586h804q1 97 -30 174t-85 125 t-122.5 73t-145.5 25q-167 0 -287 -105.5t-134 -291.5zM379 1227v258h80v-258h-80zM715 1227v258h80v-258h-80z" />
<glyph unicode="&#xec;" horiz-adv-x="471" d="M18 1477h107l221 -273h-82zM193 0v1038h86v-1038h-86z" />
<glyph unicode="&#xed;" horiz-adv-x="471" d="M162 1204l223 273h111l-254 -273h-80zM193 0v1038h86v-1038h-86z" />
<glyph unicode="&#xee;" horiz-adv-x="471" d="M-47 1204l231 273h105l231 -273h-78l-206 221l-209 -221h-74zM193 0v1038h86v-1038h-86z" />
<glyph unicode="&#xef;" horiz-adv-x="471" d="M29 1227v258h80v-258h-80zM193 0v1038h86v-1038h-86zM365 1227v258h79v-258h-79z" />
<glyph unicode="&#xf0;" horiz-adv-x="1251" d="M104 516q0 152 67.5 275t184.5 191.5t260 68.5q128 0 231 -50.5t169 -144.5q-76 226 -297 428l-160 -110l-33 43l152 106q-101 86 -236 174l80 19q95 -57 213 -152l144 100l34 -45l-135 -94q371 -330 371 -756q0 -271 -147 -430t-373 -159q-223 0 -374 153t-151 383z M193 516q0 -198 125.5 -329.5t310.5 -131.5q192 0 312 135t120 355q0 191 -125.5 312.5t-306.5 121.5q-186 0 -311 -131.5t-125 -331.5z" />
<glyph unicode="&#xf1;" horiz-adv-x="1255" d="M193 0v1038h83v-219q25 44 63 84t90.5 76.5t122.5 58t148 21.5q373 0 373 -402v-657h-86v651q0 328 -305 328q-130 0 -235 -70t-168 -174v-735h-86zM274 1229q8 97 60.5 161t138.5 64q48 0 95.5 -25.5t78.5 -55.5t71 -55.5t75 -25.5q50 0 83 41t37 113h70 q-5 -94 -57.5 -156.5t-130.5 -62.5q-47 0 -93 25.5t-77.5 55.5t-71 55.5t-74.5 25.5q-55 0 -90.5 -39t-44.5 -121h-70z" />
<glyph unicode="&#xf2;" horiz-adv-x="1263" d="M104 520q0 155 70.5 279t190.5 192t266 68q147 0 267 -68t190.5 -192t70.5 -279q0 -236 -152 -388t-376 -152q-109 0 -206 40t-167.5 110t-112 171.5t-41.5 218.5zM195 520q0 -204 125 -334.5t311 -130.5q187 0 312.5 130.5t125.5 334.5q0 203 -125.5 332t-312.5 129 q-186 0 -311 -129t-125 -332zM385 1477h107l221 -273h-82z" />
<glyph unicode="&#xf3;" horiz-adv-x="1263" d="M104 520q0 155 70.5 279t190.5 192t266 68q147 0 267 -68t190.5 -192t70.5 -279q0 -236 -152 -388t-376 -152q-109 0 -206 40t-167.5 110t-112 171.5t-41.5 218.5zM195 520q0 -204 125 -334.5t311 -130.5q187 0 312.5 130.5t125.5 334.5q0 203 -125.5 332t-312.5 129 q-186 0 -311 -129t-125 -332zM504 1204l223 273h111l-254 -273h-80z" />
<glyph unicode="&#xf4;" horiz-adv-x="1263" d="M104 520q0 155 70.5 279t190.5 192t266 68q147 0 267 -68t190.5 -192t70.5 -279q0 -236 -152 -388t-376 -152q-109 0 -206 40t-167.5 110t-112 171.5t-41.5 218.5zM195 520q0 -204 125 -334.5t311 -130.5q187 0 312.5 130.5t125.5 334.5q0 203 -125.5 332t-312.5 129 q-186 0 -311 -129t-125 -332zM346 1204l232 273h104l231 -273h-77l-207 221l-209 -221h-74z" />
<glyph unicode="&#xf5;" horiz-adv-x="1263" d="M104 520q0 155 70.5 279t190.5 192t266 68q147 0 267 -68t190.5 -192t70.5 -279q0 -236 -152 -388t-376 -152q-109 0 -206 40t-167.5 110t-112 171.5t-41.5 218.5zM195 520q0 -204 125 -334.5t311 -130.5q187 0 312.5 130.5t125.5 334.5q0 203 -125.5 332t-312.5 129 q-186 0 -311 -129t-125 -332zM279 1229q8 97 60 161t138 64q48 0 95.5 -25.5t78.5 -55.5t71 -55.5t75 -25.5q50 0 83.5 41t37.5 113h69q-5 -94 -57.5 -156.5t-130.5 -62.5q-47 0 -93 25.5t-77.5 55.5t-71 55.5t-74.5 25.5q-55 0 -90.5 -39t-44.5 -121h-69z" />
<glyph unicode="&#xf6;" horiz-adv-x="1263" d="M104 520q0 155 70.5 279t190.5 192t266 68q147 0 267 -68t190.5 -192t70.5 -279q0 -236 -152 -388t-376 -152q-109 0 -206 40t-167.5 110t-112 171.5t-41.5 218.5zM195 520q0 -204 125 -334.5t311 -130.5q187 0 312.5 130.5t125.5 334.5q0 203 -125.5 332t-312.5 129 q-186 0 -311 -129t-125 -332zM422 1227v258h80v-258h-80zM758 1227v258h80v-258h-80z" />
<glyph unicode="&#xf7;" d="M98 659v74h955v-74h-955zM512 231v175h113v-175h-113zM512 987v172h113v-172h-113z" />
<glyph unicode="&#xf8;" horiz-adv-x="1263" d="M104 520q0 155 70.5 279t190.5 192t266 68q207 0 352 -129l123 129l45 -45l-123 -129q131 -150 131 -365q0 -236 -152 -388t-376 -152q-198 0 -340 120l-113 -120l-45 43l113 120q-142 152 -142 377zM195 520q0 -188 108 -315l625 663q-122 113 -297 113 q-186 0 -311 -129t-125 -332zM348 160q117 -105 283 -105q187 0 312.5 130.5t125.5 334.5q0 176 -98 301z" />
<glyph unicode="&#xf9;" horiz-adv-x="1218" d="M182 362v676h86v-669q0 -312 293 -312q220 0 377 248v733h88v-1038h-84v221q-28 -45 -63.5 -84.5t-85 -76.5t-114 -58.5t-136.5 -21.5q-361 0 -361 382zM422 1477h106l222 -273h-82z" />
<glyph unicode="&#xfa;" horiz-adv-x="1218" d="M182 362v676h86v-669q0 -312 293 -312q220 0 377 248v733h88v-1038h-84v221q-28 -45 -63.5 -84.5t-85 -76.5t-114 -58.5t-136.5 -21.5q-361 0 -361 382zM498 1204l223 273h110l-253 -273h-80z" />
<glyph unicode="&#xfb;" horiz-adv-x="1218" d="M182 362v676h86v-669q0 -312 293 -312q220 0 377 248v733h88v-1038h-84v221q-28 -45 -63.5 -84.5t-85 -76.5t-114 -58.5t-136.5 -21.5q-361 0 -361 382zM324 1204l231 273h104l232 -273h-78l-207 221l-209 -221h-73z" />
<glyph unicode="&#xfc;" horiz-adv-x="1218" d="M182 362v676h86v-669q0 -312 293 -312q220 0 377 248v733h88v-1038h-84v221q-28 -45 -63.5 -84.5t-85 -76.5t-114 -58.5t-136.5 -21.5q-361 0 -361 382zM399 1227v258h80v-258h-80zM735 1227v258h80v-258h-80z" />
<glyph unicode="&#xfd;" horiz-adv-x="1077" d="M37 1038h90l414 -942l411 942h90l-483 -1085q-30 -66 -58.5 -118.5t-68.5 -107t-82.5 -91t-98 -59.5t-116.5 -23q-49 0 -82 8v76q47 -7 74 -7q64 0 120 27.5t99.5 79t74.5 104t62 121.5l19 41zM467 1204l223 273h111l-254 -273h-80z" />
<glyph unicode="&#xfe;" horiz-adv-x="1327" d="M193 -410v1907l86 19v-707q75 117 186 183.5t252 66.5q142 0 257 -67t182 -191t67 -283q0 -239 -145 -388.5t-361 -149.5q-138 0 -250.5 63.5t-187.5 179.5v-633h-86zM279 322q74 -128 185.5 -196.5t240.5 -68.5q185 0 306.5 127t121.5 334t-121.5 335t-306.5 128 q-129 0 -241 -70t-185 -200v-389z" />
<glyph unicode="&#xff;" horiz-adv-x="1077" d="M37 1038h90l414 -942l411 942h90l-483 -1085q-30 -66 -58.5 -118.5t-68.5 -107t-82.5 -91t-98 -59.5t-116.5 -23q-49 0 -82 8v76q47 -7 74 -7q64 0 120 27.5t99.5 79t74.5 104t62 121.5l19 41zM330 1227v258h80v-258h-80zM666 1227v258h79v-258h-79z" />
<glyph unicode="&#x152;" horiz-adv-x="2441" d="M115 705q0 207 90.5 374t250 261t357.5 94q216 0 376 -116.5t230 -303.5v399h905v-84h-815v-557h602v-82h-602v-608h815v-82h-905v397q-77 -193 -235 -305t-371 -112q-198 0 -357.5 93.5t-250 259.5t-90.5 372zM209 707q0 -280 171 -462t433 -182t433 182t171 462 q0 278 -171 459.5t-433 181.5t-433 -181.5t-171 -459.5z" />
<glyph unicode="&#x153;" horiz-adv-x="2144" d="M104 520q0 155 70.5 279t190.5 192t266 68q166 0 295.5 -90t185.5 -242q49 153 176 242.5t295 89.5q205 0 334.5 -129.5t132.5 -339.5q0 -54 -4 -74h-887q4 -207 138 -334t339 -127q82 0 169 25t151 70v-80q-62 -41 -149 -65.5t-173 -24.5q-186 0 -325 94t-195 252 q-51 -158 -182.5 -252t-300.5 -94q-109 0 -206 40t-167.5 110t-112 171.5t-41.5 218.5zM195 520q0 -204 125 -334.5t311 -130.5q187 0 312.5 130.5t125.5 334.5q0 203 -125.5 332t-312.5 129q-186 0 -311 -129t-125 -332zM1161 586h803q1 97 -30 174t-85 125t-122.5 73 t-145.5 25q-167 0 -287 -106t-133 -291z" />
<glyph unicode="&#x178;" horiz-adv-x="1323" d="M35 1413h98l526 -735l527 735h100l-579 -815v-598h-91v598zM453 1599v259h79v-259h-79zM788 1599v259h80v-259h-80z" />
<glyph unicode="&#x2c6;" horiz-adv-x="1024" d="M227 1204l232 273h104l232 -273h-78l-207 221l-209 -221h-74z" />
<glyph unicode="&#x2dc;" horiz-adv-x="1024" d="M160 1229q8 97 60 161t138 64q48 0 95.5 -25.5t78.5 -55.5t71 -55.5t75 -25.5q50 0 83.5 41t37.5 113h69q-5 -94 -57.5 -156.5t-130.5 -62.5q-47 0 -93 25.5t-77 55.5t-70.5 55.5t-74.5 25.5q-55 0 -91 -39.5t-45 -120.5h-69z" />
<glyph unicode="&#x2000;" horiz-adv-x="956" />
<glyph unicode="&#x2001;" horiz-adv-x="1913" />
<glyph unicode="&#x2002;" horiz-adv-x="956" />
<glyph unicode="&#x2003;" horiz-adv-x="1913" />
<glyph unicode="&#x2004;" horiz-adv-x="637" />
<glyph unicode="&#x2005;" horiz-adv-x="478" />
<glyph unicode="&#x2006;" horiz-adv-x="318" />
<glyph unicode="&#x2007;" horiz-adv-x="318" />
<glyph unicode="&#x2008;" horiz-adv-x="239" />
<glyph unicode="&#x2009;" horiz-adv-x="382" />
<glyph unicode="&#x200a;" horiz-adv-x="106" />
<glyph unicode="&#x2010;" horiz-adv-x="798" d="M106 537v73h586v-73h-586z" />
<glyph unicode="&#x2011;" horiz-adv-x="798" d="M106 537v73h586v-73h-586z" />
<glyph unicode="&#x2012;" horiz-adv-x="798" d="M106 537v73h586v-73h-586z" />
<glyph unicode="&#x2013;" horiz-adv-x="1024" d="M92 516v74h840v-74h-840z" />
<glyph unicode="&#x2014;" horiz-adv-x="2048" d="M92 516v74h1864v-74h-1864z" />
<glyph unicode="&#x2018;" horiz-adv-x="327" d="M104 1071v148q0 70 44.5 131t107.5 90v-51q-83 -59 -86 -140h51v-178h-117z" />
<glyph unicode="&#x2019;" horiz-adv-x="327" d="M70 1042v52q82 58 88 139h-54v180h117v-149q0 -71 -43.5 -132t-107.5 -90z" />
<glyph unicode="&#x201a;" horiz-adv-x="327" d="M70 -139q82 58 88 139h-54v178h117v-149q0 -70 -43.5 -130t-107.5 -89v51z" />
<glyph unicode="&#x201c;" horiz-adv-x="595" d="M104 1071v148q0 70 44.5 131t107.5 90v-51q-83 -59 -86 -140h51v-178h-117zM375 1071v148q0 71 43.5 131.5t107.5 89.5v-51q-82 -58 -88 -140h54v-178h-117z" />
<glyph unicode="&#x201d;" horiz-adv-x="595" d="M70 1042v52q82 58 88 139h-54v180h117v-149q0 -71 -43.5 -132t-107.5 -90zM340 1042v52q83 59 86 139h-51v180h117v-149q0 -70 -44.5 -131.5t-107.5 -90.5z" />
<glyph unicode="&#x201e;" horiz-adv-x="598" d="M70 -139q82 58 88 139h-54v178h117v-149q0 -70 -43.5 -130t-107.5 -89v51zM340 -139q82 56 88 139h-53v178h119v-149q0 -69 -44.5 -129.5t-109.5 -89.5v51z" />
<glyph unicode="&#x2022;" horiz-adv-x="522" d="M102 649q0 69 44.5 113.5t113.5 44.5q70 0 115 -44.5t45 -113.5q0 -71 -45 -115.5t-115 -44.5q-69 0 -113.5 45t-44.5 115z" />
<glyph unicode="&#x2026;" horiz-adv-x="1019" d="M104 0v178h117v-178h-117zM451 0v178h116v-178h-116zM797 0v178h116v-178h-116z" />
<glyph unicode="&#x202f;" horiz-adv-x="382" />
<glyph unicode="&#x2039;" horiz-adv-x="720" d="M109 487v50l434 395l39 -39l-385 -381l385 -381l-39 -39z" />
<glyph unicode="&#x203a;" horiz-adv-x="720" d="M137 131l385 381l-385 381l39 39l434 -395v-50l-434 -395z" />
<glyph unicode="&#x205f;" horiz-adv-x="478" />
<glyph unicode="&#x20ac;" horiz-adv-x="1370" d="M49 549l8 67h181q-5 78 -5 95q0 15 5 92h-154l8 67h156q43 256 218 410t429 154q198 0 356 -86v-88q-85 44 -165 66t-185 22q-222 0 -370.5 -129t-190.5 -349h741l-8 -67h-743q-4 -62 -4 -92q0 -33 4 -95h714l-8 -67h-696q40 -225 190.5 -355.5t378.5 -130.5 q188 0 363 84v-90q-175 -77 -377 -77q-256 0 -430 154t-219 415h-197z" />
<glyph unicode="&#x2122;" horiz-adv-x="1259" d="M53 1356v57h420v-57h-178v-500h-59v500h-183zM586 856v557h61l213 -307l213 307h60v-557h-62v455l-188 -267h-47l-189 269v-457h-61z" />
<glyph unicode="&#x25fc;" horiz-adv-x="1034" d="M0 0v1034h1034v-1034h-1034z" />
</font>
</defs>
</svg>
